<?xml version="1.0" standalone="no"?>
<!DOCTYPE svg PUBLIC "-//W3C//DTD SVG 20010904//EN"
 "http://www.w3.org/TR/2001/REC-SVG-20010904/DTD/svg10.dtd">
<svg version="1.0" xmlns="http://www.w3.org/2000/svg"
 width="1200.000000pt" height="1200.000000pt" viewBox="0 0 1200.000000 1200.000000"
 preserveAspectRatio="xMidYMid meet">
<metadata>
Created by potrace 1.11, written by Peter Selinger 2001-2013
</metadata>
<g transform="translate(0.000000,1200.000000) scale(0.100000,-0.100000)"
fill="#000000" stroke="none">
<path d="M5895 11110 c-285 -26 -525 -139 -731 -344 -232 -232 -346 -508 -346
-836 0 -330 114 -603 351 -841 169 -168 354 -274 566 -322 l60 -14 3 -1145 2
-1146 -52 -11 c-257 -55 -486 -179 -668 -361 -154 -153 -268 -343 -329 -547
-44 -150 -54 -240 -48 -436 5 -182 26 -292 82 -431 l24 -60 -22 -15 c-12 -9
-571 -397 -1242 -862 l-1220 -846 -75 69 c-217 203 -493 310 -800 310 -328 0
-604 -114 -836 -346 -232 -232 -346 -508 -346 -836 0 -329 121 -621 356 -856
232 -232 508 -346 836 -346 328 0 604 114 836 346 232 232 346 508 346 836 0
143 -19 262 -64 394 -16 48 -26 91 -21 96 9 8 2403 1667 2445 1694 l28 18 77
-72 c186 -172 425 -292 672 -336 98 -17 354 -17 452 0 249 45 487 164 675 340
l82 76 1233 -856 c678 -470 1235 -856 1237 -858 2 -3 -10 -44 -26 -93 -45
-131 -64 -250 -64 -393 0 -328 114 -604 346 -836 234 -233 508 -346 841 -346
333 0 607 113 841 346 232 232 346 508 346 836 0 328 -114 604 -346 836 -234
233 -508 346 -841 346 -307 0 -582 -104 -797 -302 l-68 -61 -1243 862 -1243
862 22 56 c55 136 76 247 81 428 6 196 -4 286 -48 436 -61 204 -175 394 -329
547 -182 182 -411 306 -667 361 l-53 11 0 1144 0 1144 28 6 c257 58 432 152
608 328 232 232 346 508 346 836 0 330 -114 603 -351 841 -108 108 -192 169
-316 232 -185 92 -419 136 -630 117z m348 -5114 c298 -88 512 -302 604 -603
24 -79 26 -104 26 -238 0 -134 -2 -159 -27 -240 -54 -179 -130 -309 -247 -421
-110 -104 -200 -156 -346 -201 -79 -24 -104 -26 -238 -26 -134 0 -159 2 -238
26 -310 95 -516 307 -613 632 -24 79 -27 108 -28 235 -1 166 16 245 80 373
131 262 362 435 651 487 90 17 279 4 376 -24z"/>
</g>
</svg>
